<svg width="200" height="40" viewBox="0 0 534 148" fill="none" xmlns="http://www.w3.org/2000/svg">
                <g id="robotics copy 1" filter="url(#filter0_d)">
                <g clip-path="url(#clip0)">
                <g id="Vector" filter="url(#filter1_d)">
                <mask id="path-2-inside-1" fill="white">
                <path d="M247.554 124.527C242.161 130.331 235.259 134.613 227.574 136.922C220.909 138.967 213.956 139.984 206.967 139.937C196.902 139.937 186.836 139.779 176.727 139.99C164.847 140.252 156.055 132.752 152.729 123.424C151.736 120.745 151.214 117.922 151.185 115.074C151.185 82.1009 151.185 49.1177 151.185 16.145C151.185 8.93909 155.634 4.40127 161.92 1.33404C163.842 0.411383 165.965 -0.0462469 168.108 1.54504e-05C180.377 0.0630407 192.646 0.105057 204.905 1.54504e-05C212.136 -0.000446128 219.261 1.69677 225.673 4.94749C232.218 8.09875 237.629 12.6471 240.372 19.4538C243.612 27.6576 243.774 35.7983 238.309 43.2983C234.346 48.7185 228.654 51.8383 222.206 53.7185C219.917 54.3803 217.562 54.8425 214.938 55.4727C221.623 55.4727 228.071 55.0946 234.249 57.8887C232.877 58.9916 231.581 60.0736 230.242 61.0925C230.032 61.2217 229.852 61.3912 229.712 61.5906C229.572 61.7899 229.475 62.015 229.428 62.2519C229.38 62.4889 229.383 62.7328 229.435 62.9687C229.488 63.2046 229.59 63.4276 229.734 63.624C230.868 65.7248 231.894 67.8257 233.115 69.9265C233.38 70.3166 233.509 70.7792 233.484 71.2463C233.459 71.7133 233.28 72.1601 232.974 72.521C231.323 75.0886 229.834 77.7511 228.514 80.4937C228.33 81.0098 227.981 81.4552 227.519 81.7651C227.057 82.075 226.505 82.2331 225.943 82.2164C223.546 82.416 221.148 82.6996 218.75 82.9097C218.546 82.9024 218.343 82.9359 218.153 83.0082C217.963 83.0804 217.79 83.1899 217.646 83.3297C217.501 83.4695 217.387 83.6368 217.311 83.8211C217.236 84.0055 217.2 84.2029 217.206 84.4013C216.936 87.0273 216.601 89.6534 216.342 92.2689C216.304 92.6261 216.406 92.9842 216.628 93.2708C216.851 93.5573 217.177 93.7511 217.541 93.813C220.036 94.5483 222.498 95.3677 225.004 96.0714C225.442 96.1556 225.839 96.3804 226.131 96.7098C226.423 97.0393 226.592 97.4544 226.613 97.8887C227.035 101.073 227.983 104.169 229.421 107.059C229.623 107.391 229.702 107.779 229.647 108.161C229.593 108.542 229.406 108.895 229.118 109.16C227.498 110.956 225.976 112.836 224.431 114.695C223.351 115.977 223.351 116.345 224.431 117.637C225.922 119.475 227.466 121.282 228.978 123.109C229.11 123.301 229.28 123.464 229.479 123.589C229.677 123.715 229.9 123.799 230.133 123.839C230.366 123.878 230.605 123.871 230.836 123.818C231.066 123.765 231.283 123.666 231.473 123.529C233.752 122.363 236.02 121.177 238.331 120.095C238.608 119.974 238.908 119.912 239.211 119.912C239.515 119.912 239.814 119.974 240.091 120.095C242.608 121.492 245.049 122.994 247.554 124.527ZM162.039 78.0778C162.422 89.5892 165.554 100.856 171.186 110.987C173.444 115.074 176.165 118.855 180.161 121.576C184.622 124.611 189.147 124.59 193.618 121.576C196.143 119.796 198.308 117.578 200.001 115.032C205.142 107.679 208.177 99.4853 210.11 90.8719C211.536 84.4853 212.335 78.0358 211.19 71.5126C209.797 63.8656 205.412 58.7185 197.582 56.6912C190.62 54.9002 183.3 54.9002 176.338 56.6912C173.368 57.3226 170.622 58.7049 168.377 60.6986C166.131 62.6923 164.467 65.2268 163.551 68.0462C162.474 71.2845 161.963 74.6753 162.039 78.0778ZM187.527 14.6219C183.617 15.0105 180.248 15.1471 176.943 15.6723C170.387 16.7857 165.851 20.3046 164.685 26.9118C164.215 29.8084 164.095 32.7486 164.328 35.6723C164.804 43.0988 169.091 48.2773 176.446 50.2521C183.266 52.0852 190.47 52.0852 197.29 50.2521C200.021 49.6639 202.531 48.3544 204.545 46.4677C206.559 44.581 207.999 42.1903 208.706 39.5588C209.855 35.4939 210.01 31.2241 209.16 27.0904C208.08 21.208 204.462 17.416 198.5 16.103C194.742 15.3152 190.843 15.0631 187.527 14.6219Z"/>
                </mask>
                <path d="M247.554 124.527C242.161 130.331 235.259 134.613 227.574 136.922C220.909 138.967 213.956 139.984 206.967 139.937C196.902 139.937 186.836 139.779 176.727 139.99C164.847 140.252 156.055 132.752 152.729 123.424C151.736 120.745 151.214 117.922 151.185 115.074C151.185 82.1009 151.185 49.1177 151.185 16.145C151.185 8.93909 155.634 4.40127 161.92 1.33404C163.842 0.411383 165.965 -0.0462469 168.108 1.54504e-05C180.377 0.0630407 192.646 0.105057 204.905 1.54504e-05C212.136 -0.000446128 219.261 1.69677 225.673 4.94749C232.218 8.09875 237.629 12.6471 240.372 19.4538C243.612 27.6576 243.774 35.7983 238.309 43.2983C234.346 48.7185 228.654 51.8383 222.206 53.7185C219.917 54.3803 217.562 54.8425 214.938 55.4727C221.623 55.4727 228.071 55.0946 234.249 57.8887C232.877 58.9916 231.581 60.0736 230.242 61.0925C230.032 61.2217 229.852 61.3912 229.712 61.5906C229.572 61.7899 229.475 62.015 229.428 62.2519C229.38 62.4889 229.383 62.7328 229.435 62.9687C229.488 63.2046 229.59 63.4276 229.734 63.624C230.868 65.7248 231.894 67.8257 233.115 69.9265C233.38 70.3166 233.509 70.7792 233.484 71.2463C233.459 71.7133 233.28 72.1601 232.974 72.521C231.323 75.0886 229.834 77.7511 228.514 80.4937C228.33 81.0098 227.981 81.4552 227.519 81.7651C227.057 82.075 226.505 82.2331 225.943 82.2164C223.546 82.416 221.148 82.6996 218.75 82.9097C218.546 82.9024 218.343 82.9359 218.153 83.0082C217.963 83.0804 217.79 83.1899 217.646 83.3297C217.501 83.4695 217.387 83.6368 217.311 83.8211C217.236 84.0055 217.2 84.2029 217.206 84.4013C216.936 87.0273 216.601 89.6534 216.342 92.2689C216.304 92.6261 216.406 92.9842 216.628 93.2708C216.851 93.5573 217.177 93.7511 217.541 93.813C220.036 94.5483 222.498 95.3677 225.004 96.0714C225.442 96.1556 225.839 96.3804 226.131 96.7098C226.423 97.0393 226.592 97.4544 226.613 97.8887C227.035 101.073 227.983 104.169 229.421 107.059C229.623 107.391 229.702 107.779 229.647 108.161C229.593 108.542 229.406 108.895 229.118 109.16C227.498 110.956 225.976 112.836 224.431 114.695C223.351 115.977 223.351 116.345 224.431 117.637C225.922 119.475 227.466 121.282 228.978 123.109C229.11 123.301 229.28 123.464 229.479 123.589C229.677 123.715 229.9 123.799 230.133 123.839C230.366 123.878 230.605 123.871 230.836 123.818C231.066 123.765 231.283 123.666 231.473 123.529C233.752 122.363 236.02 121.177 238.331 120.095C238.608 119.974 238.908 119.912 239.211 119.912C239.515 119.912 239.814 119.974 240.091 120.095C242.608 121.492 245.049 122.994 247.554 124.527ZM162.039 78.0778C162.422 89.5892 165.554 100.856 171.186 110.987C173.444 115.074 176.165 118.855 180.161 121.576C184.622 124.611 189.147 124.59 193.618 121.576C196.143 119.796 198.308 117.578 200.001 115.032C205.142 107.679 208.177 99.4853 210.11 90.8719C211.536 84.4853 212.335 78.0358 211.19 71.5126C209.797 63.8656 205.412 58.7185 197.582 56.6912C190.62 54.9002 183.3 54.9002 176.338 56.6912C173.368 57.3226 170.622 58.7049 168.377 60.6986C166.131 62.6923 164.467 65.2268 163.551 68.0462C162.474 71.2845 161.963 74.6753 162.039 78.0778ZM187.527 14.6219C183.617 15.0105 180.248 15.1471 176.943 15.6723C170.387 16.7857 165.851 20.3046 164.685 26.9118C164.215 29.8084 164.095 32.7486 164.328 35.6723C164.804 43.0988 169.091 48.2773 176.446 50.2521C183.266 52.0852 190.47 52.0852 197.29 50.2521C200.021 49.6639 202.531 48.3544 204.545 46.4677C206.559 44.581 207.999 42.1903 208.706 39.5588C209.855 35.4939 210.01 31.2241 209.16 27.0904C208.08 21.208 204.462 17.416 198.5 16.103C194.742 15.3152 190.843 15.0631 187.527 14.6219Z" fill="#010101"/>
                <path d="M247.554 124.527C242.161 130.331 235.259 134.613 227.574 136.922C220.909 138.967 213.956 139.984 206.967 139.937C196.902 139.937 186.836 139.779 176.727 139.99C164.847 140.252 156.055 132.752 152.729 123.424C151.736 120.745 151.214 117.922 151.185 115.074C151.185 82.1009 151.185 49.1177 151.185 16.145C151.185 8.93909 155.634 4.40127 161.92 1.33404C163.842 0.411383 165.965 -0.0462469 168.108 1.54504e-05C180.377 0.0630407 192.646 0.105057 204.905 1.54504e-05C212.136 -0.000446128 219.261 1.69677 225.673 4.94749C232.218 8.09875 237.629 12.6471 240.372 19.4538C243.612 27.6576 243.774 35.7983 238.309 43.2983C234.346 48.7185 228.654 51.8383 222.206 53.7185C219.917 54.3803 217.562 54.8425 214.938 55.4727C221.623 55.4727 228.071 55.0946 234.249 57.8887C232.877 58.9916 231.581 60.0736 230.242 61.0925C230.032 61.2217 229.852 61.3912 229.712 61.5906C229.572 61.7899 229.475 62.015 229.428 62.2519C229.38 62.4889 229.383 62.7328 229.435 62.9687C229.488 63.2046 229.59 63.4276 229.734 63.624C230.868 65.7248 231.894 67.8257 233.115 69.9265C233.38 70.3166 233.509 70.7792 233.484 71.2463C233.459 71.7133 233.28 72.1601 232.974 72.521C231.323 75.0886 229.834 77.7511 228.514 80.4937C228.33 81.0098 227.981 81.4552 227.519 81.7651C227.057 82.075 226.505 82.2331 225.943 82.2164C223.546 82.416 221.148 82.6996 218.75 82.9097C218.546 82.9024 218.343 82.9359 218.153 83.0082C217.963 83.0804 217.79 83.1899 217.646 83.3297C217.501 83.4695 217.387 83.6368 217.311 83.8211C217.236 84.0055 217.2 84.2029 217.206 84.4013C216.936 87.0273 216.601 89.6534 216.342 92.2689C216.304 92.6261 216.406 92.9842 216.628 93.2708C216.851 93.5573 217.177 93.7511 217.541 93.813C220.036 94.5483 222.498 95.3677 225.004 96.0714C225.442 96.1556 225.839 96.3804 226.131 96.7098C226.423 97.0393 226.592 97.4544 226.613 97.8887C227.035 101.073 227.983 104.169 229.421 107.059C229.623 107.391 229.702 107.779 229.647 108.161C229.593 108.542 229.406 108.895 229.118 109.16C227.498 110.956 225.976 112.836 224.431 114.695C223.351 115.977 223.351 116.345 224.431 117.637C225.922 119.475 227.466 121.282 228.978 123.109C229.11 123.301 229.28 123.464 229.479 123.589C229.677 123.715 229.9 123.799 230.133 123.839C230.366 123.878 230.605 123.871 230.836 123.818C231.066 123.765 231.283 123.666 231.473 123.529C233.752 122.363 236.02 121.177 238.331 120.095C238.608 119.974 238.908 119.912 239.211 119.912C239.515 119.912 239.814 119.974 240.091 120.095C242.608 121.492 245.049 122.994 247.554 124.527ZM162.039 78.0778C162.422 89.5892 165.554 100.856 171.186 110.987C173.444 115.074 176.165 118.855 180.161 121.576C184.622 124.611 189.147 124.59 193.618 121.576C196.143 119.796 198.308 117.578 200.001 115.032C205.142 107.679 208.177 99.4853 210.11 90.8719C211.536 84.4853 212.335 78.0358 211.19 71.5126C209.797 63.8656 205.412 58.7185 197.582 56.6912C190.62 54.9002 183.3 54.9002 176.338 56.6912C173.368 57.3226 170.622 58.7049 168.377 60.6986C166.131 62.6923 164.467 65.2268 163.551 68.0462C162.474 71.2845 161.963 74.6753 162.039 78.0778ZM187.527 14.6219C183.617 15.0105 180.248 15.1471 176.943 15.6723C170.387 16.7857 165.851 20.3046 164.685 26.9118C164.215 29.8084 164.095 32.7486 164.328 35.6723C164.804 43.0988 169.091 48.2773 176.446 50.2521C183.266 52.0852 190.47 52.0852 197.29 50.2521C200.021 49.6639 202.531 48.3544 204.545 46.4677C206.559 44.581 207.999 42.1903 208.706 39.5588C209.855 35.4939 210.01 31.2241 209.16 27.0904C208.08 21.208 204.462 17.416 198.5 16.103C194.742 15.3152 190.843 15.0631 187.527 14.6219Z" stroke="black" stroke-width="46" mask="url(#path-2-inside-1)"/>
                </g>
                <g id="Vector_2">
                <mask id="path-3-inside-2" fill="white">
                <path d="M308.877 42.5735L329.322 42.6366H334.722V63.2983H309.569C309.083 63.2983 308.208 62.9412 308.489 64.0546V64.5588C308.489 64.979 308.489 65.3992 308.489 65.8193C308.489 78.0462 308.489 90.2696 308.489 102.49C308.489 103.204 308.489 103.918 308.543 104.59L308.824 105.578C308.824 111.565 312.366 116.607 318.63 117.952C323.534 118.968 328.638 118.563 333.307 116.786C333.739 116.628 334.182 116.513 334.733 116.345C334.813 116.641 334.871 116.943 334.906 117.248C334.906 123.382 334.906 129.517 334.906 135.641C334.963 136.003 334.873 136.373 334.656 136.673C334.438 136.973 334.11 137.179 333.739 137.248C330.12 138.421 326.359 139.127 322.55 139.349C318.63 139.59 314.71 139.874 310.789 139.821C303.499 139.748 296.328 138.876 289.61 135.84C283.907 133.501 279.351 129.114 276.887 123.592C277.418 123.691 277.928 123.872 278.399 124.128C280.365 125.63 282.288 127.185 284.221 128.729C285.517 129.779 285.852 129.779 287.212 128.729C289.102 127.279 290.971 125.788 292.85 124.317C293.044 124.184 293.209 124.015 293.335 123.82C293.462 123.625 293.548 123.408 293.588 123.181C293.628 122.953 293.622 122.721 293.569 122.496C293.517 122.271 293.419 122.058 293.282 121.87C292.126 119.716 291.003 117.542 289.815 115.41C289.594 115.06 289.483 114.654 289.497 114.243C289.51 113.832 289.647 113.435 289.891 113.099C291.565 110.252 293.131 107.353 294.697 104.443C294.835 104.131 295.064 103.865 295.355 103.678C295.647 103.491 295.989 103.392 296.339 103.393C298.877 103.225 301.393 102.92 303.899 102.658C304.979 102.553 305.745 102.185 305.843 100.924C306.059 98.3404 306.404 95.7563 306.653 93.1723C306.739 92.2584 306.048 91.8488 305.27 91.5967C302.797 90.8299 300.324 90.042 297.829 89.3278C297.451 89.2602 297.107 89.0714 296.853 88.7915C296.598 88.5115 296.448 88.1567 296.425 87.7836C295.998 84.5531 295.039 81.4105 293.584 78.4769C293.375 78.134 293.289 77.7333 293.34 77.3377C293.391 76.9421 293.576 76.5743 293.865 76.292C295.475 74.4433 297.041 72.542 298.628 70.6618C299.535 69.6113 299.546 68.9391 298.628 67.8992C297.159 66.145 295.658 64.4118 294.232 62.6471C294.092 62.401 293.899 62.1874 293.666 62.0211C293.433 61.8547 293.165 61.7396 292.882 61.6837C292.598 61.6278 292.306 61.6323 292.024 61.6971C291.743 61.7619 291.479 61.8853 291.252 62.0589C289.21 63.1933 287.061 64.1597 284.998 65.2101C284.59 65.4599 284.112 65.5827 283.63 65.5621C283.147 65.5414 282.683 65.3783 282.298 65.0945C279.501 63.4979 276.617 62.0378 273.723 60.6303C272.945 60.2521 272.492 59.895 272.416 59.0231C272.233 56.8488 271.919 54.6954 271.779 52.521C271.639 50.3466 271.541 49.9895 269.176 49.6849C266.811 49.3803 264.564 49.2227 262.253 48.9706C262.033 48.9236 261.805 48.9222 261.584 48.9664C261.363 49.0106 261.154 49.0995 260.971 49.2272C260.788 49.355 260.634 49.5188 260.52 49.708C260.406 49.8972 260.334 50.1077 260.309 50.3256C259.683 52.479 258.905 54.5904 258.257 56.7332C257.879 57.9937 257.339 58.9391 255.784 58.9496C255.078 59.0195 254.377 59.1389 253.689 59.3067V42.7101H273.496V17.3845C274.058 17.3845 274.576 17.2899 274.976 17.2899C285.646 17.2899 296.313 17.2899 306.977 17.2899C307.506 17.2899 308.262 16.9853 308.381 17.9202C308.381 20.2731 308.316 22.6155 308.316 24.9685C308.316 30.5147 308.316 36.0574 308.316 41.5967C308.391 41.9328 308.705 42.2479 308.877 42.5735Z"/>
                </mask>
                <path d="M308.877 42.5735L329.322 42.6366H334.722V63.2983H309.569C309.083 63.2983 308.208 62.9412 308.489 64.0546V64.5588C308.489 64.979 308.489 65.3992 308.489 65.8193C308.489 78.0462 308.489 90.2696 308.489 102.49C308.489 103.204 308.489 103.918 308.543 104.59L308.824 105.578C308.824 111.565 312.366 116.607 318.63 117.952C323.534 118.968 328.638 118.563 333.307 116.786C333.739 116.628 334.182 116.513 334.733 116.345C334.813 116.641 334.871 116.943 334.906 117.248C334.906 123.382 334.906 129.517 334.906 135.641C334.963 136.003 334.873 136.373 334.656 136.673C334.438 136.973 334.11 137.179 333.739 137.248C330.12 138.421 326.359 139.127 322.55 139.349C318.63 139.59 314.71 139.874 310.789 139.821C303.499 139.748 296.328 138.876 289.61 135.84C283.907 133.501 279.351 129.114 276.887 123.592C277.418 123.691 277.928 123.872 278.399 124.128C280.365 125.63 282.288 127.185 284.221 128.729C285.517 129.779 285.852 129.779 287.212 128.729C289.102 127.279 290.971 125.788 292.85 124.317C293.044 124.184 293.209 124.015 293.335 123.82C293.462 123.625 293.548 123.408 293.588 123.181C293.628 122.953 293.622 122.721 293.569 122.496C293.517 122.271 293.419 122.058 293.282 121.87C292.126 119.716 291.003 117.542 289.815 115.41C289.594 115.06 289.483 114.654 289.497 114.243C289.51 113.832 289.647 113.435 289.891 113.099C291.565 110.252 293.131 107.353 294.697 104.443C294.835 104.131 295.064 103.865 295.355 103.678C295.647 103.491 295.989 103.392 296.339 103.393C298.877 103.225 301.393 102.92 303.899 102.658C304.979 102.553 305.745 102.185 305.843 100.924C306.059 98.3404 306.404 95.7563 306.653 93.1723C306.739 92.2584 306.048 91.8488 305.27 91.5967C302.797 90.8299 300.324 90.042 297.829 89.3278C297.451 89.2602 297.107 89.0714 296.853 88.7915C296.598 88.5115 296.448 88.1567 296.425 87.7836C295.998 84.5531 295.039 81.4105 293.584 78.4769C293.375 78.134 293.289 77.7333 293.34 77.3377C293.391 76.9421 293.576 76.5743 293.865 76.292C295.475 74.4433 297.041 72.542 298.628 70.6618C299.535 69.6113 299.546 68.9391 298.628 67.8992C297.159 66.145 295.658 64.4118 294.232 62.6471C294.092 62.401 293.899 62.1874 293.666 62.0211C293.433 61.8547 293.165 61.7396 292.882 61.6837C292.598 61.6278 292.306 61.6323 292.024 61.6971C291.743 61.7619 291.479 61.8853 291.252 62.0589C289.21 63.1933 287.061 64.1597 284.998 65.2101C284.59 65.4599 284.112 65.5827 283.63 65.5621C283.147 65.5414 282.683 65.3783 282.298 65.0945C279.501 63.4979 276.617 62.0378 273.723 60.6303C272.945 60.2521 272.492 59.895 272.416 59.0231C272.233 56.8488 271.919 54.6954 271.779 52.521C271.639 50.3466 271.541 49.9895 269.176 49.6849C266.811 49.3803 264.564 49.2227 262.253 48.9706C262.033 48.9236 261.805 48.9222 261.584 48.9664C261.363 49.0106 261.154 49.0995 260.971 49.2272C260.788 49.355 260.634 49.5188 260.52 49.708C260.406 49.8972 260.334 50.1077 260.309 50.3256C259.683 52.479 258.905 54.5904 258.257 56.7332C257.879 57.9937 257.339 58.9391 255.784 58.9496C255.078 59.0195 254.377 59.1389 253.689 59.3067V42.7101H273.496V17.3845C274.058 17.3845 274.576 17.2899 274.976 17.2899C285.646 17.2899 296.313 17.2899 306.977 17.2899C307.506 17.2899 308.262 16.9853 308.381 17.9202C308.381 20.2731 308.316 22.6155 308.316 24.9685C308.316 30.5147 308.316 36.0574 308.316 41.5967C308.391 41.9328 308.705 42.2479 308.877 42.5735Z" fill="#010101" stroke="black" stroke-width="2" mask="url(#path-3-inside-2)"/>
                </g>
                <g id="Vector_3">
                <mask id="path-4-outside-3" maskUnits="userSpaceOnUse" x="0" y="31.9826" width="93" height="112" fill="black">
                <rect fill="white" y="31.9826" width="93" height="112"/>
                <path d="M22.5033 93.666V132.405C26.0242 132.405 29.5126 132.405 32.9903 132.405C33.9384 132.395 34.8856 132.469 35.8199 132.626C36.631 132.783 37.3538 133.226 37.85 133.87C38.3463 134.513 38.5809 135.312 38.5091 136.113C38.5549 136.912 38.3169 137.702 37.8352 138.35C37.3534 138.998 36.6572 139.466 35.8631 139.674C35.1525 139.817 34.4286 139.887 33.7031 139.884C25.1493 139.884 16.5956 139.884 8.04189 139.884C7.35357 139.879 6.66703 139.816 5.98986 139.695C4.56424 139.443 4.07823 138.824 4.07823 137.384V134.863C4.07823 133.477 4.52104 132.763 5.91426 132.658C8.00949 132.458 10.1263 132.458 12.2323 132.405C13.4744 132.405 14.7272 132.405 16.0232 132.405V43.4034C13.2044 43.4034 10.4503 43.4034 7.69629 43.4034C7.09813 43.3784 6.50259 43.3117 5.91426 43.2038C5.62247 43.201 5.33511 43.134 5.07373 43.0078C4.81235 42.8816 4.58373 42.6996 4.40501 42.4752C4.22629 42.2509 4.10211 41.99 4.04177 41.7124C3.98144 41.4347 3.98652 41.1473 4.05663 40.8718C4.16465 40.077 4.16465 39.2718 4.05663 38.4769C3.82983 36.7017 4.92064 36.376 6.33547 36.1029C7.10408 35.9942 7.88182 35.959 8.6575 35.9979C20.6673 35.9979 32.6771 35.9979 44.6868 35.9979C51.4586 35.8735 58.0587 38.0749 63.3268 42.215C68.5949 46.3551 72.1939 52.169 73.4908 58.6345C76.0181 70.1891 71.1256 81.4076 59.9798 87.7731C57.5498 89.1597 55.0118 90.3572 52.9921 91.3971C54.6986 93.2353 56.4914 95.2626 58.3922 97.2059C62.8689 102.084 66.6339 107.537 69.5812 113.414C72.7132 119.254 75.7481 125.158 78.7289 131.071C78.8953 131.525 79.2167 131.909 79.6394 132.159C80.0621 132.41 80.5604 132.512 81.0509 132.447C82.6853 132.379 84.3226 132.453 85.9434 132.668C86.7573 132.829 87.4797 133.28 87.9676 133.934C88.4556 134.587 88.6737 135.395 88.5787 136.197C88.5787 137.994 87.4986 139.569 85.8678 139.674C82.6278 139.874 79.4849 139.874 76.2989 139.853C75.9857 139.853 75.5753 139.265 75.3701 138.866C71.8168 131.954 68.3608 125 64.7319 118.13C61.1031 111.26 56.999 104.758 51.0265 99.5903C48.6613 97.4895 46.0044 95.7983 43.4664 93.9601C43.0771 93.7052 42.6181 93.5698 42.1488 93.5714C35.6687 93.5714 29.2858 93.5714 22.8489 93.5714C22.7302 93.5893 22.6142 93.621 22.5033 93.666V93.666ZM22.5033 43.4454V86.0084C28.6918 86.0084 34.8155 86.0819 40.9392 86.0084C48.1748 85.966 55.1498 83.3764 60.5739 78.7185C65.7687 74.3277 68.4256 68.8025 67.5616 61.9748C66.9968 58.3077 65.405 54.8625 62.9607 52.0168C58.943 47.0063 53.8454 43.6975 47.2033 43.5189C39.0383 43.2773 30.8302 43.4454 22.5249 43.4454H22.5033Z"/>
                </mask>
                <path d="M22.5033 93.666V132.405C26.0242 132.405 29.5126 132.405 32.9903 132.405C33.9384 132.395 34.8856 132.469 35.8199 132.626C36.631 132.783 37.3538 133.226 37.85 133.87C38.3463 134.513 38.5809 135.312 38.5091 136.113C38.5549 136.912 38.3169 137.702 37.8352 138.35C37.3534 138.998 36.6572 139.466 35.8631 139.674C35.1525 139.817 34.4286 139.887 33.7031 139.884C25.1493 139.884 16.5956 139.884 8.04189 139.884C7.35357 139.879 6.66703 139.816 5.98986 139.695C4.56424 139.443 4.07823 138.824 4.07823 137.384V134.863C4.07823 133.477 4.52104 132.763 5.91426 132.658C8.00949 132.458 10.1263 132.458 12.2323 132.405C13.4744 132.405 14.7272 132.405 16.0232 132.405V43.4034C13.2044 43.4034 10.4503 43.4034 7.69629 43.4034C7.09813 43.3784 6.50259 43.3117 5.91426 43.2038C5.62247 43.201 5.33511 43.134 5.07373 43.0078C4.81235 42.8816 4.58373 42.6996 4.40501 42.4752C4.22629 42.2509 4.10211 41.99 4.04177 41.7124C3.98144 41.4347 3.98652 41.1473 4.05663 40.8718C4.16465 40.077 4.16465 39.2718 4.05663 38.4769C3.82983 36.7017 4.92064 36.376 6.33547 36.1029C7.10408 35.9942 7.88182 35.959 8.6575 35.9979C20.6673 35.9979 32.6771 35.9979 44.6868 35.9979C51.4586 35.8735 58.0587 38.0749 63.3268 42.215C68.5949 46.3551 72.1939 52.169 73.4908 58.6345C76.0181 70.1891 71.1256 81.4076 59.9798 87.7731C57.5498 89.1597 55.0118 90.3572 52.9921 91.3971C54.6986 93.2353 56.4914 95.2626 58.3922 97.2059C62.8689 102.084 66.6339 107.537 69.5812 113.414C72.7132 119.254 75.7481 125.158 78.7289 131.071C78.8953 131.525 79.2167 131.909 79.6394 132.159C80.0621 132.41 80.5604 132.512 81.0509 132.447C82.6853 132.379 84.3226 132.453 85.9434 132.668C86.7573 132.829 87.4797 133.28 87.9676 133.934C88.4556 134.587 88.6737 135.395 88.5787 136.197C88.5787 137.994 87.4986 139.569 85.8678 139.674C82.6278 139.874 79.4849 139.874 76.2989 139.853C75.9857 139.853 75.5753 139.265 75.3701 138.866C71.8168 131.954 68.3608 125 64.7319 118.13C61.1031 111.26 56.999 104.758 51.0265 99.5903C48.6613 97.4895 46.0044 95.7983 43.4664 93.9601C43.0771 93.7052 42.6181 93.5698 42.1488 93.5714C35.6687 93.5714 29.2858 93.5714 22.8489 93.5714C22.7302 93.5893 22.6142 93.621 22.5033 93.666V93.666ZM22.5033 43.4454V86.0084C28.6918 86.0084 34.8155 86.0819 40.9392 86.0084C48.1748 85.966 55.1498 83.3764 60.5739 78.7185C65.7687 74.3277 68.4256 68.8025 67.5616 61.9748C66.9968 58.3077 65.405 54.8625 62.9607 52.0168C58.943 47.0063 53.8454 43.6975 47.2033 43.5189C39.0383 43.2773 30.8302 43.4454 22.5249 43.4454H22.5033Z" fill="#030303"/>
                <path d="M22.5033 93.666V132.405C26.0242 132.405 29.5126 132.405 32.9903 132.405C33.9384 132.395 34.8856 132.469 35.8199 132.626C36.631 132.783 37.3538 133.226 37.85 133.87C38.3463 134.513 38.5809 135.312 38.5091 136.113C38.5549 136.912 38.3169 137.702 37.8352 138.35C37.3534 138.998 36.6572 139.466 35.8631 139.674C35.1525 139.817 34.4286 139.887 33.7031 139.884C25.1493 139.884 16.5956 139.884 8.04189 139.884C7.35357 139.879 6.66703 139.816 5.98986 139.695C4.56424 139.443 4.07823 138.824 4.07823 137.384V134.863C4.07823 133.477 4.52104 132.763 5.91426 132.658C8.00949 132.458 10.1263 132.458 12.2323 132.405C13.4744 132.405 14.7272 132.405 16.0232 132.405V43.4034C13.2044 43.4034 10.4503 43.4034 7.69629 43.4034C7.09813 43.3784 6.50259 43.3117 5.91426 43.2038C5.62247 43.201 5.33511 43.134 5.07373 43.0078C4.81235 42.8816 4.58373 42.6996 4.40501 42.4752C4.22629 42.2509 4.10211 41.99 4.04177 41.7124C3.98144 41.4347 3.98652 41.1473 4.05663 40.8718C4.16465 40.077 4.16465 39.2718 4.05663 38.4769C3.82983 36.7017 4.92064 36.376 6.33547 36.1029C7.10408 35.9942 7.88182 35.959 8.6575 35.9979C20.6673 35.9979 32.6771 35.9979 44.6868 35.9979C51.4586 35.8735 58.0587 38.0749 63.3268 42.215C68.5949 46.3551 72.1939 52.169 73.4908 58.6345C76.0181 70.1891 71.1256 81.4076 59.9798 87.7731C57.5498 89.1597 55.0118 90.3572 52.9921 91.3971C54.6986 93.2353 56.4914 95.2626 58.3922 97.2059C62.8689 102.084 66.6339 107.537 69.5812 113.414C72.7132 119.254 75.7481 125.158 78.7289 131.071C78.8953 131.525 79.2167 131.909 79.6394 132.159C80.0621 132.41 80.5604 132.512 81.0509 132.447C82.6853 132.379 84.3226 132.453 85.9434 132.668C86.7573 132.829 87.4797 133.28 87.9676 133.934C88.4556 134.587 88.6737 135.395 88.5787 136.197C88.5787 137.994 87.4986 139.569 85.8678 139.674C82.6278 139.874 79.4849 139.874 76.2989 139.853C75.9857 139.853 75.5753 139.265 75.3701 138.866C71.8168 131.954 68.3608 125 64.7319 118.13C61.1031 111.26 56.999 104.758 51.0265 99.5903C48.6613 97.4895 46.0044 95.7983 43.4664 93.9601C43.0771 93.7052 42.6181 93.5698 42.1488 93.5714C35.6687 93.5714 29.2858 93.5714 22.8489 93.5714C22.7302 93.5893 22.6142 93.621 22.5033 93.666V93.666ZM22.5033 43.4454V86.0084C28.6918 86.0084 34.8155 86.0819 40.9392 86.0084C48.1748 85.966 55.1498 83.3764 60.5739 78.7185C65.7687 74.3277 68.4256 68.8025 67.5616 61.9748C66.9968 58.3077 65.405 54.8625 62.9607 52.0168C58.943 47.0063 53.8454 43.6975 47.2033 43.5189C39.0383 43.2773 30.8302 43.4454 22.5249 43.4454H22.5033Z" stroke="black" stroke-width="8" mask="url(#path-4-outside-3)"/>
                </g>
                <g id="Vector_4">
                <mask id="path-5-outside-4" maskUnits="userSpaceOnUse" x="466.299" y="54.9921" width="66" height="87" fill="black">
                <rect fill="white" x="466.299" y="54.9921" width="66" height="87"/>
                <path d="M519.988 64.4328C520.204 63.4664 520.302 62.6366 520.561 61.8592C520.683 61.2571 521.019 60.7161 521.511 60.3317C522.003 59.9474 522.619 59.7444 523.25 59.7584C523.903 59.6882 524.559 59.8586 525.089 60.2358C525.618 60.6131 525.984 61.1699 526.112 61.7962C526.395 62.6238 526.552 63.4873 526.576 64.3592C526.62 68.729 526.62 73.0987 526.576 77.4685C526.559 78.4253 526.41 79.3756 526.134 80.2941C525.993 80.957 525.605 81.5458 525.045 81.9472C524.485 82.3486 523.791 82.5343 523.099 82.4685C522.432 82.3994 521.808 82.1177 521.324 81.6674C520.839 81.217 520.522 80.6234 520.42 79.979C520.237 79.0336 520.183 78.0672 520.01 77.1323C519.027 71.7857 515.366 68.6554 510.549 66.6281C505.732 64.6008 500.418 64.2542 495.126 64.7584C490.69 65.0226 486.438 66.578 482.922 69.2227C480.179 71.376 478.213 74.0336 477.976 77.5525C477.884 78.826 478.054 80.1044 478.477 81.3129C478.9 82.5214 479.567 83.6357 480.438 84.5903C482.821 87.2114 486.066 88.9456 489.618 89.4958C493.69 90.2836 497.805 90.8508 501.898 91.5441C508 92.5945 514.135 93.4349 519.535 96.7962C522.224 98.3817 524.525 100.519 526.276 103.059C528.028 105.599 529.188 108.481 529.676 111.502C530.918 118.687 528.683 125.01 523.747 130.473C519.146 135.546 513.238 138.067 506.467 138.95C498.852 139.937 491.346 139.611 484.207 136.649C481.158 135.4 478.338 133.676 475.859 131.544C475.546 131.271 475.2 131.029 474.66 130.62C474.606 131.67 474.541 132.437 474.509 133.256C474.55 134.059 474.274 134.846 473.738 135.457C473.202 136.068 472.446 136.457 471.625 136.544C470.845 136.543 470.094 136.254 469.525 135.735C468.956 135.217 468.61 134.507 468.558 133.75C468.391 132.676 468.304 131.591 468.299 130.504C468.299 125.714 468.299 120.924 468.299 116.134C468.323 115.096 468.501 114.066 468.828 113.078C468.982 112.566 469.299 112.115 469.734 111.79C470.169 111.465 470.699 111.283 471.247 111.271C471.787 111.211 472.333 111.311 472.813 111.559C473.293 111.806 473.685 112.189 473.937 112.658C474.39 113.36 474.657 114.162 474.714 114.989C474.487 121.576 478.267 125.609 483.711 128.645C487.452 130.621 491.599 131.766 495.85 131.996C500.95 132.512 506.105 131.964 510.97 130.389C517.083 128.288 521.446 124.317 523.196 118.151C523.911 115.478 523.717 112.652 522.645 110.094C521.572 107.537 519.678 105.385 517.245 103.96C512.624 101.267 507.473 99.5454 502.125 98.9075C496.034 97.9937 489.888 97.3949 484.013 95.4201C480.364 94.1216 477.213 91.7634 474.987 88.6652C472.762 85.5669 471.569 81.8782 471.571 78.0987C471.571 69.2227 476.356 63.6764 484.11 60.063C489.75 57.5178 496 56.5259 502.179 57.1954C508.025 57.5682 513.63 59.6067 518.293 63.0567C518.865 63.4664 519.362 63.918 519.988 64.4328Z"/>
                </mask>
                <path d="M519.988 64.4328C520.204 63.4664 520.302 62.6366 520.561 61.8592C520.683 61.2571 521.019 60.7161 521.511 60.3317C522.003 59.9474 522.619 59.7444 523.25 59.7584C523.903 59.6882 524.559 59.8586 525.089 60.2358C525.618 60.6131 525.984 61.1699 526.112 61.7962C526.395 62.6238 526.552 63.4873 526.576 64.3592C526.62 68.729 526.62 73.0987 526.576 77.4685C526.559 78.4253 526.41 79.3756 526.134 80.2941C525.993 80.957 525.605 81.5458 525.045 81.9472C524.485 82.3486 523.791 82.5343 523.099 82.4685C522.432 82.3994 521.808 82.1177 521.324 81.6674C520.839 81.217 520.522 80.6234 520.42 79.979C520.237 79.0336 520.183 78.0672 520.01 77.1323C519.027 71.7857 515.366 68.6554 510.549 66.6281C505.732 64.6008 500.418 64.2542 495.126 64.7584C490.69 65.0226 486.438 66.578 482.922 69.2227C480.179 71.376 478.213 74.0336 477.976 77.5525C477.884 78.826 478.054 80.1044 478.477 81.3129C478.9 82.5214 479.567 83.6357 480.438 84.5903C482.821 87.2114 486.066 88.9456 489.618 89.4958C493.69 90.2836 497.805 90.8508 501.898 91.5441C508 92.5945 514.135 93.4349 519.535 96.7962C522.224 98.3817 524.525 100.519 526.276 103.059C528.028 105.599 529.188 108.481 529.676 111.502C530.918 118.687 528.683 125.01 523.747 130.473C519.146 135.546 513.238 138.067 506.467 138.95C498.852 139.937 491.346 139.611 484.207 136.649C481.158 135.4 478.338 133.676 475.859 131.544C475.546 131.271 475.2 131.029 474.66 130.62C474.606 131.67 474.541 132.437 474.509 133.256C474.55 134.059 474.274 134.846 473.738 135.457C473.202 136.068 472.446 136.457 471.625 136.544C470.845 136.543 470.094 136.254 469.525 135.735C468.956 135.217 468.61 134.507 468.558 133.75C468.391 132.676 468.304 131.591 468.299 130.504C468.299 125.714 468.299 120.924 468.299 116.134C468.323 115.096 468.501 114.066 468.828 113.078C468.982 112.566 469.299 112.115 469.734 111.79C470.169 111.465 470.699 111.283 471.247 111.271C471.787 111.211 472.333 111.311 472.813 111.559C473.293 111.806 473.685 112.189 473.937 112.658C474.39 113.36 474.657 114.162 474.714 114.989C474.487 121.576 478.267 125.609 483.711 128.645C487.452 130.621 491.599 131.766 495.85 131.996C500.95 132.512 506.105 131.964 510.97 130.389C517.083 128.288 521.446 124.317 523.196 118.151C523.911 115.478 523.717 112.652 522.645 110.094C521.572 107.537 519.678 105.385 517.245 103.96C512.624 101.267 507.473 99.5454 502.125 98.9075C496.034 97.9937 489.888 97.3949 484.013 95.4201C480.364 94.1216 477.213 91.7634 474.987 88.6652C472.762 85.5669 471.569 81.8782 471.571 78.0987C471.571 69.2227 476.356 63.6764 484.11 60.063C489.75 57.5178 496 56.5259 502.179 57.1954C508.025 57.5682 513.63 59.6067 518.293 63.0567C518.865 63.4664 519.362 63.918 519.988 64.4328Z" fill="#020202"/>
                <path d="M519.988 64.4328C520.204 63.4664 520.302 62.6366 520.561 61.8592C520.683 61.2571 521.019 60.7161 521.511 60.3317C522.003 59.9474 522.619 59.7444 523.25 59.7584C523.903 59.6882 524.559 59.8586 525.089 60.2358C525.618 60.6131 525.984 61.1699 526.112 61.7962C526.395 62.6238 526.552 63.4873 526.576 64.3592C526.62 68.729 526.62 73.0987 526.576 77.4685C526.559 78.4253 526.41 79.3756 526.134 80.2941C525.993 80.957 525.605 81.5458 525.045 81.9472C524.485 82.3486 523.791 82.5343 523.099 82.4685C522.432 82.3994 521.808 82.1177 521.324 81.6674C520.839 81.217 520.522 80.6234 520.42 79.979C520.237 79.0336 520.183 78.0672 520.01 77.1323C519.027 71.7857 515.366 68.6554 510.549 66.6281C505.732 64.6008 500.418 64.2542 495.126 64.7584C490.69 65.0226 486.438 66.578 482.922 69.2227C480.179 71.376 478.213 74.0336 477.976 77.5525C477.884 78.826 478.054 80.1044 478.477 81.3129C478.9 82.5214 479.567 83.6357 480.438 84.5903C482.821 87.2114 486.066 88.9456 489.618 89.4958C493.69 90.2836 497.805 90.8508 501.898 91.5441C508 92.5945 514.135 93.4349 519.535 96.7962C522.224 98.3817 524.525 100.519 526.276 103.059C528.028 105.599 529.188 108.481 529.676 111.502C530.918 118.687 528.683 125.01 523.747 130.473C519.146 135.546 513.238 138.067 506.467 138.95C498.852 139.937 491.346 139.611 484.207 136.649C481.158 135.4 478.338 133.676 475.859 131.544C475.546 131.271 475.2 131.029 474.66 130.62C474.606 131.67 474.541 132.437 474.509 133.256C474.55 134.059 474.274 134.846 473.738 135.457C473.202 136.068 472.446 136.457 471.625 136.544C470.845 136.543 470.094 136.254 469.525 135.735C468.956 135.217 468.61 134.507 468.558 133.75C468.391 132.676 468.304 131.591 468.299 130.504C468.299 125.714 468.299 120.924 468.299 116.134C468.323 115.096 468.501 114.066 468.828 113.078C468.982 112.566 469.299 112.115 469.734 111.79C470.169 111.465 470.699 111.283 471.247 111.271C471.787 111.211 472.333 111.311 472.813 111.559C473.293 111.806 473.685 112.189 473.937 112.658C474.39 113.36 474.657 114.162 474.714 114.989C474.487 121.576 478.267 125.609 483.711 128.645C487.452 130.621 491.599 131.766 495.85 131.996C500.95 132.512 506.105 131.964 510.97 130.389C517.083 128.288 521.446 124.317 523.196 118.151C523.911 115.478 523.717 112.652 522.645 110.094C521.572 107.537 519.678 105.385 517.245 103.96C512.624 101.267 507.473 99.5454 502.125 98.9075C496.034 97.9937 489.888 97.3949 484.013 95.4201C480.364 94.1216 477.213 91.7634 474.987 88.6652C472.762 85.5669 471.569 81.8782 471.571 78.0987C471.571 69.2227 476.356 63.6764 484.11 60.063C489.75 57.5178 496 56.5259 502.179 57.1954C508.025 57.5682 513.63 59.6067 518.293 63.0567C518.865 63.4664 519.362 63.918 519.988 64.4328Z" stroke="black" stroke-width="4" mask="url(#path-5-outside-4)"/>
                </g>
                <g id="Vector_5">
                <mask id="path-6-outside-5" maskUnits="userSpaceOnUse" x="74.926" y="55.0032" width="76" height="87" fill="black">
                <rect fill="white" x="74.926" y="55.0032" width="76" height="87"/>
                <path d="M148.161 98.2458C147.988 108.33 145.298 117.553 139.034 125.641C133.98 132.164 127.716 137.101 119.281 138.771C109.032 140.819 99.765 138.687 91.8269 131.891C84.7168 125.891 79.8609 117.761 78.0243 108.782C76.8424 103.233 76.6125 97.533 77.3439 91.9118C78.3163 83.3231 81.934 75.2205 87.7228 68.666C94.6673 60.7668 103.361 56.5126 114.194 57.0483C122.964 57.4895 130.135 61.25 136.054 67.437C141.736 73.3098 145.557 80.6512 147.059 88.5819C147.664 91.7647 147.804 95.021 148.161 98.2458ZM141.529 99.4853C141.529 88.2248 138.181 79.5903 131.474 72.7311C120.944 61.9643 104.657 61.7332 93.8789 72.2689C87.4266 78.5395 83.6695 86.9632 83.3704 95.8298C82.8196 105.861 85.4548 114.905 92.2697 122.647C103.07 134.916 120.469 135.326 131.777 123.519C138.082 117.024 141.574 108.418 141.529 99.4853Z"/>
                </mask>
                <path d="M148.161 98.2458C147.988 108.33 145.298 117.553 139.034 125.641C133.98 132.164 127.716 137.101 119.281 138.771C109.032 140.819 99.765 138.687 91.8269 131.891C84.7168 125.891 79.8609 117.761 78.0243 108.782C76.8424 103.233 76.6125 97.533 77.3439 91.9118C78.3163 83.3231 81.934 75.2205 87.7228 68.666C94.6673 60.7668 103.361 56.5126 114.194 57.0483C122.964 57.4895 130.135 61.25 136.054 67.437C141.736 73.3098 145.557 80.6512 147.059 88.5819C147.664 91.7647 147.804 95.021 148.161 98.2458ZM141.529 99.4853C141.529 88.2248 138.181 79.5903 131.474 72.7311C120.944 61.9643 104.657 61.7332 93.8789 72.2689C87.4266 78.5395 83.6695 86.9632 83.3704 95.8298C82.8196 105.861 85.4548 114.905 92.2697 122.647C103.07 134.916 120.469 135.326 131.777 123.519C138.082 117.024 141.574 108.418 141.529 99.4853Z" fill="#020202"/>
                <path d="M148.161 98.2458C147.988 108.33 145.298 117.553 139.034 125.641C133.98 132.164 127.716 137.101 119.281 138.771C109.032 140.819 99.765 138.687 91.8269 131.891C84.7168 125.891 79.8609 117.761 78.0243 108.782C76.8424 103.233 76.6125 97.533 77.3439 91.9118C78.3163 83.3231 81.934 75.2205 87.7228 68.666C94.6673 60.7668 103.361 56.5126 114.194 57.0483C122.964 57.4895 130.135 61.25 136.054 67.437C141.736 73.3098 145.557 80.6512 147.059 88.5819C147.664 91.7647 147.804 95.021 148.161 98.2458ZM141.529 99.4853C141.529 88.2248 138.181 79.5903 131.474 72.7311C120.944 61.9643 104.657 61.7332 93.8789 72.2689C87.4266 78.5395 83.6695 86.9632 83.3704 95.8298C82.8196 105.861 85.4548 114.905 92.2697 122.647C103.07 134.916 120.469 135.326 131.777 123.519C138.082 117.024 141.574 108.418 141.529 99.4853Z" stroke="black" stroke-width="4" mask="url(#path-6-outside-5)"/>
                </g>
                <g id="Vector_6">
                <mask id="path-7-outside-6" maskUnits="userSpaceOnUse" x="392.953" y="55.0325" width="75" height="87" fill="black">
                <rect fill="white" x="392.953" y="55.0325" width="75" height="87"/>
                <path d="M401.457 102.584C401.632 107.779 403.084 112.857 405.69 117.395C409.719 124.496 415.464 129.58 423.867 131.397C431.017 132.952 437.907 131.817 444.517 129.296C449.845 127.216 454.584 123.928 458.341 119.706C458.859 119.139 459.421 118.571 459.929 118.046C461.214 116.796 462.175 116.544 463.352 117.132C463.965 117.515 464.455 118.058 464.764 118.699C465.074 119.34 465.191 120.053 465.102 120.756C464.776 122.628 463.828 124.344 462.402 125.641C456.025 132.383 447.603 136.971 438.361 138.74C430.898 140.116 423.543 139.958 416.523 136.88C408.541 133.372 403.131 127.321 399.361 119.779C396.973 114.868 395.562 109.561 395.203 104.139C394.49 95.6513 395.203 87.332 398.595 79.4223C402.234 70.9034 407.947 64.1282 416.588 60.0105C421.86 57.5892 427.712 56.6158 433.511 57.1954C441.514 57.769 449.017 61.1952 454.583 66.8172C454.749 66.9168 454.927 66.9978 455.112 67.0588C455.112 65.8403 455.047 64.7374 455.112 63.645C455.154 62.8604 455.337 62.089 455.652 61.3656C455.845 60.8967 456.18 60.4954 456.611 60.2143C457.043 59.9332 457.552 59.7853 458.071 59.7899C458.61 59.7419 459.15 59.8563 459.62 60.1175C460.089 60.3787 460.465 60.7741 460.695 61.25C461.07 61.9529 461.28 62.7277 461.311 63.5189C461.311 69.8214 461.311 76.0399 461.311 82.3004C461.288 83.0892 461.15 83.8708 460.901 84.6218C460.748 85.2304 460.386 85.7698 459.875 86.1505C459.364 86.5311 458.734 86.73 458.09 86.714C457.446 86.698 456.828 86.4682 456.337 86.0627C455.846 85.6572 455.513 85.1006 455.393 84.4853C455.079 83.1513 455.047 81.7437 454.691 80.4202C453.955 77.573 452.565 74.9252 450.625 72.6763C448.685 70.4274 446.246 68.636 443.491 67.437C439.418 65.4287 434.917 64.3759 430.351 64.3632C425.784 64.3504 421.277 65.3779 417.192 67.3635C411.792 69.8319 408.466 74.2962 405.82 79.2857C403.054 84.4765 401.501 90.1976 401.273 96.0399L401.176 96.8488V100.609L401.457 102.584Z"/>
                </mask>
                <path d="M401.457 102.584C401.632 107.779 403.084 112.857 405.69 117.395C409.719 124.496 415.464 129.58 423.867 131.397C431.017 132.952 437.907 131.817 444.517 129.296C449.845 127.216 454.584 123.928 458.341 119.706C458.859 119.139 459.421 118.571 459.929 118.046C461.214 116.796 462.175 116.544 463.352 117.132C463.965 117.515 464.455 118.058 464.764 118.699C465.074 119.34 465.191 120.053 465.102 120.756C464.776 122.628 463.828 124.344 462.402 125.641C456.025 132.383 447.603 136.971 438.361 138.74C430.898 140.116 423.543 139.958 416.523 136.88C408.541 133.372 403.131 127.321 399.361 119.779C396.973 114.868 395.562 109.561 395.203 104.139C394.49 95.6513 395.203 87.332 398.595 79.4223C402.234 70.9034 407.947 64.1282 416.588 60.0105C421.86 57.5892 427.712 56.6158 433.511 57.1954C441.514 57.769 449.017 61.1952 454.583 66.8172C454.749 66.9168 454.927 66.9978 455.112 67.0588C455.112 65.8403 455.047 64.7374 455.112 63.645C455.154 62.8604 455.337 62.089 455.652 61.3656C455.845 60.8967 456.18 60.4954 456.611 60.2143C457.043 59.9332 457.552 59.7853 458.071 59.7899C458.61 59.7419 459.15 59.8563 459.62 60.1175C460.089 60.3787 460.465 60.7741 460.695 61.25C461.07 61.9529 461.28 62.7277 461.311 63.5189C461.311 69.8214 461.311 76.0399 461.311 82.3004C461.288 83.0892 461.15 83.8708 460.901 84.6218C460.748 85.2304 460.386 85.7698 459.875 86.1505C459.364 86.5311 458.734 86.73 458.09 86.714C457.446 86.698 456.828 86.4682 456.337 86.0627C455.846 85.6572 455.513 85.1006 455.393 84.4853C455.079 83.1513 455.047 81.7437 454.691 80.4202C453.955 77.573 452.565 74.9252 450.625 72.6763C448.685 70.4274 446.246 68.636 443.491 67.437C439.418 65.4287 434.917 64.3759 430.351 64.3632C425.784 64.3504 421.277 65.3779 417.192 67.3635C411.792 69.8319 408.466 74.2962 405.82 79.2857C403.054 84.4765 401.501 90.1976 401.273 96.0399L401.176 96.8488V100.609L401.457 102.584Z" fill="#020202"/>
                <path d="M401.457 102.584C401.632 107.779 403.084 112.857 405.69 117.395C409.719 124.496 415.464 129.58 423.867 131.397C431.017 132.952 437.907 131.817 444.517 129.296C449.845 127.216 454.584 123.928 458.341 119.706C458.859 119.139 459.421 118.571 459.929 118.046C461.214 116.796 462.175 116.544 463.352 117.132C463.965 117.515 464.455 118.058 464.764 118.699C465.074 119.34 465.191 120.053 465.102 120.756C464.776 122.628 463.828 124.344 462.402 125.641C456.025 132.383 447.603 136.971 438.361 138.74C430.898 140.116 423.543 139.958 416.523 136.88C408.541 133.372 403.131 127.321 399.361 119.779C396.973 114.868 395.562 109.561 395.203 104.139C394.49 95.6513 395.203 87.332 398.595 79.4223C402.234 70.9034 407.947 64.1282 416.588 60.0105C421.86 57.5892 427.712 56.6158 433.511 57.1954C441.514 57.769 449.017 61.1952 454.583 66.8172C454.749 66.9168 454.927 66.9978 455.112 67.0588C455.112 65.8403 455.047 64.7374 455.112 63.645C455.154 62.8604 455.337 62.089 455.652 61.3656C455.845 60.8967 456.18 60.4954 456.611 60.2143C457.043 59.9332 457.552 59.7853 458.071 59.7899C458.61 59.7419 459.15 59.8563 459.62 60.1175C460.089 60.3787 460.465 60.7741 460.695 61.25C461.07 61.9529 461.28 62.7277 461.311 63.5189C461.311 69.8214 461.311 76.0399 461.311 82.3004C461.288 83.0892 461.15 83.8708 460.901 84.6218C460.748 85.2304 460.386 85.7698 459.875 86.1505C459.364 86.5311 458.734 86.73 458.09 86.714C457.446 86.698 456.828 86.4682 456.337 86.0627C455.846 85.6572 455.513 85.1006 455.393 84.4853C455.079 83.1513 455.047 81.7437 454.691 80.4202C453.955 77.573 452.565 74.9252 450.625 72.6763C448.685 70.4274 446.246 68.636 443.491 67.437C439.418 65.4287 434.917 64.3759 430.351 64.3632C425.784 64.3504 421.277 65.3779 417.192 67.3635C411.792 69.8319 408.466 74.2962 405.82 79.2857C403.054 84.4765 401.501 90.1976 401.273 96.0399L401.176 96.8488V100.609L401.457 102.584Z" stroke="black" stroke-width="4" mask="url(#path-7-outside-6)"/>
                </g>
                <g id="Vector_7">
                <mask id="path-8-outside-7" maskUnits="userSpaceOnUse" x="335.303" y="59.8167" width="69" height="81" fill="black">
                <rect fill="white" x="335.303" y="59.8167" width="69" height="81"/>
                <path d="M366.388 131.197V69.3277H358.331C354.886 69.3277 351.43 69.3277 347.974 69.3277C345.004 69.3277 343.438 67.7626 343.654 65.2311C343.652 64.7779 343.744 64.329 343.923 63.9107C344.103 63.4924 344.366 63.1132 344.698 62.7952C345.03 62.4772 345.424 62.2269 345.857 62.0589C346.289 61.891 346.752 61.8088 347.218 61.8172C355.642 61.8172 364.066 61.8172 372.49 61.8172C372.609 61.8444 372.725 61.8831 372.836 61.9328V131.208H396.596C397.416 131.213 398.235 131.266 399.048 131.366C399.481 131.381 399.907 131.482 400.3 131.661C400.692 131.839 401.044 132.093 401.334 132.406C401.624 132.72 401.847 133.087 401.988 133.485C402.13 133.884 402.188 134.306 402.158 134.727C402.158 136.24 401.618 138.099 399.458 138.445C398.786 138.579 398.103 138.657 397.417 138.676H341.904C341.26 138.676 340.619 138.602 339.993 138.456C338.049 138.025 337.196 136.775 337.314 134.653C337.282 134.235 337.338 133.815 337.479 133.418C337.62 133.022 337.843 132.658 338.135 132.349C338.426 132.04 338.78 131.792 339.174 131.621C339.568 131.45 339.994 131.36 340.425 131.355C341.109 131.264 341.798 131.215 342.488 131.208H366.388V131.197Z"/>
                </mask>
                <path d="M366.388 131.197V69.3277H358.331C354.886 69.3277 351.43 69.3277 347.974 69.3277C345.004 69.3277 343.438 67.7626 343.654 65.2311C343.652 64.7779 343.744 64.329 343.923 63.9107C344.103 63.4924 344.366 63.1132 344.698 62.7952C345.03 62.4772 345.424 62.2269 345.857 62.0589C346.289 61.891 346.752 61.8088 347.218 61.8172C355.642 61.8172 364.066 61.8172 372.49 61.8172C372.609 61.8444 372.725 61.8831 372.836 61.9328V131.208H396.596C397.416 131.213 398.235 131.266 399.048 131.366C399.481 131.381 399.907 131.482 400.3 131.661C400.692 131.839 401.044 132.093 401.334 132.406C401.624 132.72 401.847 133.087 401.988 133.485C402.13 133.884 402.188 134.306 402.158 134.727C402.158 136.24 401.618 138.099 399.458 138.445C398.786 138.579 398.103 138.657 397.417 138.676H341.904C341.26 138.676 340.619 138.602 339.993 138.456C338.049 138.025 337.196 136.775 337.314 134.653C337.282 134.235 337.338 133.815 337.479 133.418C337.62 133.022 337.843 132.658 338.135 132.349C338.426 132.04 338.78 131.792 339.174 131.621C339.568 131.45 339.994 131.36 340.425 131.355C341.109 131.264 341.798 131.215 342.488 131.208H366.388V131.197Z" fill="#030303"/>
                <path d="M366.388 131.197V69.3277H358.331C354.886 69.3277 351.43 69.3277 347.974 69.3277C345.004 69.3277 343.438 67.7626 343.654 65.2311C343.652 64.7779 343.744 64.329 343.923 63.9107C344.103 63.4924 344.366 63.1132 344.698 62.7952C345.03 62.4772 345.424 62.2269 345.857 62.0589C346.289 61.891 346.752 61.8088 347.218 61.8172C355.642 61.8172 364.066 61.8172 372.49 61.8172C372.609 61.8444 372.725 61.8831 372.836 61.9328V131.208H396.596C397.416 131.213 398.235 131.266 399.048 131.366C399.481 131.381 399.907 131.482 400.3 131.661C400.692 131.839 401.044 132.093 401.334 132.406C401.624 132.72 401.847 133.087 401.988 133.485C402.13 133.884 402.188 134.306 402.158 134.727C402.158 136.24 401.618 138.099 399.458 138.445C398.786 138.579 398.103 138.657 397.417 138.676H341.904C341.26 138.676 340.619 138.602 339.993 138.456C338.049 138.025 337.196 136.775 337.314 134.653C337.282 134.235 337.338 133.815 337.479 133.418C337.62 133.022 337.843 132.658 338.135 132.349C338.426 132.04 338.78 131.792 339.174 131.621C339.568 131.45 339.994 131.36 340.425 131.355C341.109 131.264 341.798 131.215 342.488 131.208H366.388V131.197Z" stroke="black" stroke-width="4" mask="url(#path-8-outside-7)"/>
                </g>
                <path id="i_top" d="M363.31 42.6471V23.5609H372.523V42.7101H363.569L363.31 42.6471Z" fill="#020202"/>
                <path id="Vector_8" d="M308.877 42.5735C308.704 42.2479 308.392 41.9328 308.381 41.6072C308.381 36.0609 308.381 30.5182 308.381 24.979C308.381 22.626 308.381 20.2836 308.446 17.9307C308.653 18.3339 308.795 18.7663 308.866 19.2122C308.888 26.9538 308.877 34.7899 308.877 42.5735Z" fill="transparent"/>
                <path id="Vector_9" d="M308.402 64.5693V64.0651C308.553 64.4012 308.844 64.7374 308.844 65.1155C308.844 78.3578 308.844 91.5967 308.844 104.832C308.813 105.117 308.755 105.398 308.672 105.672L308.392 104.685C308.484 104.241 308.546 103.792 308.575 103.34C308.575 90.8824 308.575 78.4174 308.575 65.9454C308.556 65.4829 308.498 65.0227 308.402 64.5693V64.5693Z" fill="#FAFCFC"/>
                <path id="Vector_10" d="M363.57 43.3613H372.545V43.645C369.888 43.645 367.231 43.645 364.585 43.645C364.216 43.6058 363.854 43.5247 363.505 43.4034L363.57 43.3613Z" fill="#FAFCFC"/>
                <path id="Vector_11" d="M363.31 42.6471L363.569 42.7311C363.569 42.9412 363.569 43.1513 363.569 43.3613H363.515C363.472 43.1408 363.386 42.8992 363.31 42.6471Z" fill="#FAFCFC"/>
                <path id="Vector_12" d="M162.039 78.0777C161.947 74.6706 162.443 71.2725 163.507 68.0252C164.424 65.2057 166.088 62.6712 168.333 60.6775C170.579 58.6838 173.325 57.3015 176.295 56.6702C183.256 54.8792 190.577 54.8792 197.539 56.6702C205.369 58.6975 209.754 63.8445 211.147 71.4916C212.335 78.0147 211.536 84.4643 210.067 90.8508C208.134 99.4748 205.099 107.658 199.958 115.01C198.264 117.557 196.1 119.775 193.575 121.555C189.104 124.58 184.579 124.601 180.118 121.555C176.122 118.834 173.4 115.053 171.143 110.966C165.529 100.838 162.412 89.5786 162.039 78.0777V78.0777Z" fill="transparent"/>
                <path id="Vector_13" d="M187.527 14.6219C190.864 15.063 194.763 15.3151 198.522 16.1345C204.483 17.4475 208.058 21.2395 209.181 27.1219C210.032 31.2556 209.876 35.5254 208.728 39.5903C208.023 42.2376 206.576 44.6427 204.549 46.538C202.522 48.4332 199.995 49.7444 197.247 50.3256C190.427 52.1587 183.223 52.1587 176.403 50.3256C169.048 48.3508 164.76 43.1723 164.285 35.7458C164.052 32.8221 164.172 29.8819 164.642 26.9853C165.808 20.3781 170.344 16.8592 176.9 15.7458C180.226 15.147 183.596 15.0105 187.527 14.6219ZM187.786 49.2857C189.32 49.0967 191.826 48.9286 194.266 48.4349C198.705 47.521 202.41 45.4412 204.386 41.229C205.997 37.6792 206.449 33.7342 205.682 29.9265C205.62 29.4202 205.448 28.9328 205.176 28.4968C204.904 28.0608 204.54 27.6865 204.107 27.3989C203.674 27.1113 203.183 26.9171 202.667 26.8295C202.151 26.7419 201.621 26.7628 201.114 26.8908C199.17 27.2269 197.247 27.6891 195.336 28.1933C191.134 29.3067 186.911 29.9895 182.581 29.0336C179.902 28.4349 177.256 27.7101 174.567 27.1324C170.603 26.271 168.832 27.4475 168.411 31.334C168.222 33.2519 168.222 35.183 168.411 37.1008C168.524 39.2722 169.26 41.3693 170.535 43.1552C171.81 44.941 173.573 46.3441 175.625 47.2059C179.168 48.8445 182.98 49.0756 187.765 49.2647L187.786 49.2857Z" fill="#FAFCFC"/>
                <path id="Vector_14" d="M308.402 64.5693C308.506 65.008 308.574 65.4541 308.606 65.9033C308.606 78.3753 308.606 90.8403 308.606 103.298C308.577 103.75 308.516 104.199 308.424 104.643C308.424 103.929 308.37 103.214 308.37 102.542C308.37 90.3291 308.37 78.1057 308.37 65.8718C308.37 65.4096 308.392 64.9895 308.402 64.5693Z" fill="#FEFEFE"/>
                <path id="Vector_15" d="M22.5007 43.4454C30.8061 43.4454 39.0142 43.2773 47.2007 43.4979C53.8428 43.6764 58.9405 46.9853 62.9581 51.9958C65.4024 54.8415 66.9942 58.2866 67.559 61.9538C68.423 68.7815 65.7662 74.3067 60.5713 78.6975C55.1472 83.3553 48.1722 85.945 40.9366 85.9874C34.8129 86.0819 28.6892 85.9874 22.5007 85.9874V43.4454Z" fill="transparent"/>
                <path id="Vector_16" d="M141.529 99.4853C141.583 108.413 138.103 117.019 131.809 123.519C120.501 135.326 103.092 134.916 92.3022 122.647C85.4873 114.905 82.852 105.84 83.4028 95.8298C83.702 86.9632 87.4591 78.5395 93.9114 72.2689C104.712 61.7647 120.977 61.9643 131.507 72.7311C138.181 79.5903 141.562 88.2248 141.529 99.4853Z" fill="transparent"/>
                <path id="Vector_17" d="M187.765 49.2647C182.98 49.0756 179.125 48.8445 175.615 47.2164C173.562 46.3546 171.799 44.9515 170.524 43.1657C169.249 41.3799 168.513 39.2827 168.4 37.1114C168.211 35.1935 168.211 33.2624 168.4 31.3445C168.821 27.4265 170.56 26.25 174.556 27.1428C177.245 27.7206 179.891 28.4454 182.57 29.0441C186.89 30 191.124 29.3172 195.325 28.2038C197.236 27.6996 199.159 27.2374 201.103 26.9013C201.61 26.7733 202.14 26.7524 202.656 26.84C203.173 26.9276 203.664 27.1218 204.096 27.4094C204.529 27.6969 204.894 28.0713 205.165 28.5073C205.437 28.9433 205.61 29.4307 205.671 29.937C206.439 33.7447 205.986 37.6897 204.375 41.2395C202.399 45.4412 198.694 47.542 194.256 48.4454C191.847 48.9075 189.298 49.0756 187.765 49.2647ZM183.693 36.7647C183.706 36.0876 183.479 35.4269 183.05 34.8933C182.621 34.3598 182.017 33.9857 181.339 33.834C179.848 33.4349 178.336 33.0777 176.824 32.7836C176.42 32.6676 175.996 32.6342 175.579 32.6856C175.161 32.7371 174.759 32.8722 174.397 33.0824C174.036 33.2927 173.724 33.5735 173.479 33.9072C173.235 34.2408 173.065 34.6201 172.979 35.021C172.854 35.4127 172.813 35.8253 172.858 36.2332C172.903 36.6411 173.034 37.0355 173.243 37.3921C173.451 37.7487 173.733 38.0597 174.071 38.306C174.408 38.5522 174.794 38.7284 175.204 38.8235C176.727 39.2542 178.282 39.6323 179.837 39.937C180.316 40.051 180.815 40.0533 181.295 39.9437C181.774 39.834 182.22 39.6155 182.596 39.3061C182.972 38.9968 183.268 38.6052 183.458 38.1635C183.649 37.7218 183.729 37.2424 183.693 36.7647V36.7647ZM193.186 40C194.742 39.5798 196.815 39.1492 198.781 38.4454C199.447 38.1206 199.964 37.566 200.232 36.89C200.499 36.2139 200.498 35.4651 200.228 34.7899C200.025 34.1269 199.59 33.5538 198.998 33.1701C198.407 32.7863 197.695 32.6162 196.988 32.6891C195.13 33.0354 193.294 33.4879 191.491 34.0441C190.789 34.2841 190.206 34.7744 189.862 35.4159C189.517 36.0574 189.435 36.8022 189.633 37.5C189.795 38.274 190.251 38.9605 190.909 39.4235C191.567 39.8865 192.38 40.0923 193.186 40V40Z" fill="#0289D4"/>
                <path id="Vector_18" d="M183.693 36.7647C183.726 37.2407 183.642 37.7176 183.45 38.1565C183.258 38.5955 182.962 38.9843 182.587 39.2912C182.211 39.5982 181.766 39.8147 181.289 39.9232C180.811 40.0318 180.314 40.0293 179.837 39.916C178.282 39.6113 176.727 39.2332 175.204 38.8025C174.794 38.7074 174.408 38.5312 174.07 38.285C173.733 38.0387 173.451 37.7277 173.243 37.3711C173.034 37.0145 172.903 36.6201 172.858 36.2122C172.812 35.8043 172.854 35.3917 172.979 35C173.065 34.5991 173.235 34.2198 173.479 33.8862C173.723 33.5525 174.036 33.2717 174.397 33.0614C174.759 32.8512 175.161 32.7161 175.578 32.6646C175.996 32.6132 176.42 32.6466 176.824 32.7626C178.336 33.0987 179.848 33.4559 181.338 33.813C182.021 33.9654 182.628 34.3426 183.057 34.8805C183.486 35.4184 183.711 36.0841 183.693 36.7647V36.7647Z" fill="#F3E307"/>
                <path id="Vector_19" d="M193.186 40C192.37 40.0934 191.548 39.8818 190.886 39.4079C190.225 38.9339 189.773 38.2332 189.622 37.4475C189.424 36.7497 189.506 36.0049 189.851 35.3634C190.195 34.7219 190.778 34.2316 191.48 33.9916C193.283 33.4354 195.119 32.9829 196.977 32.6366C197.685 32.5637 198.396 32.7338 198.988 33.1176C199.579 33.5013 200.014 34.0744 200.217 34.7374C200.487 35.4126 200.488 36.1614 200.221 36.8375C199.953 37.5135 199.436 38.0681 198.77 38.3929C196.815 39.1492 194.742 39.5588 193.186 40Z" fill="#F3E307"/>
                <path id="Vector 1" d="M262.648 54.2078C263.85 54.2078 265.052 54.2078 266.255 54.2078" stroke="black" stroke-width="6" stroke-linecap="round" stroke-linejoin="round"/>
                <path id="Vector 2" d="M262.197 54.2078C257.899 59.9556 262.648 56.825 262.648 54.8655C262.648 54.2472 261.496 52.4919 261.847 52.113C262.687 51.2047 264.693 51.5771 265.804 51.5771C267.098 51.5771 268.392 51.5771 269.686 51.5771C270.639 51.5771 271.613 51.5226 272.566 51.5771C273.645 51.6389 272.25 52.468 272.115 52.6976C271.388 53.9352 270.974 54.9373 270.212 55.8642C269.704 56.4807 271.204 55.5231 272.115 55.5231" stroke="black" stroke-width="8" stroke-linecap="round" stroke-linejoin="round"/>
                <path id="Vector 3" d="M284.737 64.7305C286.984 64.3042 286.972 63.8506 288.544 62.9767C288.866 62.7978 290.938 62.1049 290.147 62.9767C289.824 63.3325 289.169 64.943 289.27 65.3882C289.481 66.3092 290.958 65.9265 291.524 66.7522C292.042 67.5068 295.024 69.5534 296.007 69.5534C296.223 69.5534 295.232 67.9286 294.855 67.824C293.688 67.4996 294.204 68.458 294.204 69.5534C294.204 70.096 294.185 72.1652 293.303 71.3072" stroke="black" stroke-width="8" stroke-linecap="round" stroke-linejoin="round"/>
                <path id="Vector 4" d="M296.458 91.0373C296.458 92.2025 294.994 98.9296 296.658 99.3921C297.018 99.4921 296.927 100.119 297.36 100.342C298.185 100.767 298.338 100.339 299.163 100.245C299.84 100.167 301.045 98.6595 301.517 98.1498C301.991 97.6372 302.98 96.5505 302.093 95.8602C300.413 94.5529 302.892 94.7248 303.22 94.3256C303.777 93.648 303.532 96.3253 303.32 96.7371C302.649 98.0421 302.318 98.1729 302.318 99.8062" stroke="black" stroke-width="8" stroke-linecap="round" stroke-linejoin="round"/>
                <path id="Vector 5" d="M277.524 123.044C279.977 123.044 283.249 123.858 285.088 122.069C285.56 121.61 287.541 120.437 287.793 119.975C288.572 118.543 288.504 120.349 288.769 121.509C289.054 122.754 288.629 123.876 288.369 125.017C288.173 125.872 286.081 126.021 287.242 125.699C287.643 125.587 289.299 124.185 289.696 123.701C290.34 122.919 292.558 123.68 293.302 123.921" stroke="black" stroke-width="8" stroke-linecap="round" stroke-linejoin="round"/>
                <path id="Vector 6" d="M233.346 60.7845C232.915 61.5003 231.993 63.9478 230.842 64.2677C228.98 64.785 229.903 64.2692 230.541 64.8279C231.671 65.8173 232.878 68.6682 233.797 69.115" stroke="black" stroke-width="8" stroke-linecap="round" stroke-linejoin="round"/>
                <path id="Vector 7" d="M222.978 85.3375C222.22 85.3195 219.723 85.3282 219.396 84.217C219.24 83.6849 219.04 83.3086 219.472 84.0221C219.955 84.8216 222.375 86.0269 221.074 87.4323C219.43 89.2094 219.841 88.0082 220.624 89.7219C221.08 90.7211 220.115 91.9895 220.473 91.8898C221.36 91.6435 222.783 91.6035 223.429 90.818C223.737 90.4425 226.076 88.845 225.006 88.845C221.152 88.845 226.584 83.7092 226.584 86.6528" stroke="black" stroke-width="8" stroke-linecap="round" stroke-linejoin="round"/>
                <path id="Vector 8" d="M225.683 92.3526C225.683 93.5218 225.683 94.691 225.683 95.8602" stroke="black" stroke-width="8" stroke-linecap="round" stroke-linejoin="round"/>
                <path id="Vector 9" d="M227.937 110.329C228.651 111.19 228.932 111.33 229.74 111.644" stroke="black" stroke-width="8" stroke-linecap="round" stroke-linejoin="round"/>
                <path id="Vector 10" d="M229.74 111.644C229.262 112.737 227.344 114.66 228.162 115.615C228.54 116.055 228.127 116.819 228.838 116.906C229.224 116.953 229.716 117.389 229.74 117.782C229.922 120.789 230.799 120.852 233.797 120.852" stroke="black" stroke-width="8" stroke-linecap="round" stroke-linejoin="round"/>
                <path id="Vector 11" d="M222.978 114.275C222.978 115.59 222.978 116.906 222.978 118.221" stroke="black" stroke-width="8" stroke-linecap="round" stroke-linejoin="round"/>
                <path id="Vector 12" d="M291.307 105.424C291.515 105.909 292.117 106.706 292.117 107.238C292.117 107.582 292.488 108.101 292.613 107.553C292.679 107.265 293.14 107.188 293.262 106.773C293.306 106.624 293.839 106.228 293.982 105.976C294.253 105.503 293.898 105.481 293.613 105.231C293.21 104.878 293.387 105.099 293.415 104.635C293.45 104.051 293.253 102.632 293.253 104.004C293.253 105.525 292.928 107.141 292.928 108.657C292.928 109.078 292.789 110.295 292.442 110.506C292.008 110.77 292.04 110.896 291.595 110.506C291.243 110.198 290.989 110.704 290.82 110.787" stroke="black" stroke-width="5" stroke-linecap="round" stroke-linejoin="round"/>
                <path id="Vector 13" d="M293.415 80.8176C293.415 79.3866 293.278 80.3951 292.64 79.8362C292.522 79.7333 292.928 79.3944 292.928 79.1615C292.928 78.8549 292.052 78.211 291.874 77.8996C291.626 77.4651 291.451 76.7699 291.108 76.4362C290.6 75.9422 290.707 75.2107 290.333 74.6661" stroke="black" stroke-width="5" stroke-linecap="round" stroke-linejoin="round"/>
                <path id="Vector 14" d="M290.658 73.8774C291.628 74.2455 293.577 74.8488 293.577 76.0857C293.577 77.1655 293.614 78.0654 293.892 79.0125C294.01 79.4131 293.494 81.8198 293.829 81.913C294.038 81.971 294.399 81.8172 294.55 82.0006C294.629 82.0964 295.032 82.5177 295.127 82.5439C295.667 82.6939 295.848 81.8346 295.848 81.4486" stroke="black" stroke-width="5" stroke-linecap="round" stroke-linejoin="round"/>
                <path id="Vector 15" d="M271.845 59.997C273.503 60.6585 270.754 59.6815 272.737 59.6815C273.175 59.6815 273.251 59.997 273.71 59.997C274.152 59.997 274.58 60.4028 274.927 60.6279" stroke="black" stroke-width="5" stroke-linecap="round" stroke-linejoin="round"/>
                <path id="wheel" d="M303.164 100.14V84.7339H291.245C290.4 80.8708 288.943 77.2619 286.98 74.0074L295.415 65.2027L284.972 54.3067L276.537 63.1113C273.419 61.0623 269.965 59.5371 266.264 58.659V46.2185H251.504V58.659C247.802 59.5371 244.345 61.0662 241.227 63.1152L232.791 54.3106L222.352 65.2027L230.791 74.0112C228.824 77.2658 227.367 80.8708 226.522 84.7339H214.603V100.14H226.522C227.367 104.003 228.824 107.608 230.788 110.863L222.352 119.671L232.791 130.567L241.227 121.763C244.345 123.808 247.802 125.337 251.504 126.215V138.655H266.264V126.215C269.965 125.337 273.419 123.812 276.537 121.763L284.972 130.567L295.408 119.671L286.976 110.867C288.939 107.612 290.4 104.003 291.242 100.14H303.164V100.14ZM258.884 107.843C250.732 107.843 244.123 100.945 244.123 92.437C244.123 83.9289 250.732 77.0308 258.884 77.0308C267.035 77.0308 273.644 83.9289 273.644 92.437C273.644 100.945 267.035 107.843 258.884 107.843Z" fill="white"/>
                <path id="Vector_20" d="M260.23 65.0002C265.608 64.9964 270.867 66.5403 275.344 69.4375C279.822 72.3347 283.317 76.4557 285.391 81.2814C287.465 86.1072 288.025 91.4219 286.999 96.5563C285.974 101.691 283.409 106.415 279.628 110.135C275.847 113.854 271.019 116.402 265.752 117.459C260.486 118.515 255.015 118.031 250.03 116.069C245.045 114.108 240.768 110.755 237.738 106.434C234.708 102.113 233.061 97.016 233.003 91.7859C232.947 88.279 233.611 84.7964 234.955 81.542C236.3 78.2875 238.298 75.3266 240.834 72.8323C243.369 70.3381 246.39 68.3607 249.721 67.0159C253.051 65.6711 256.624 64.9858 260.23 65.0002Z" fill="#010101"/>
                </g>
                </g>
                <defs>
                <filter id="filter0_d" x="0" y="0" width="534" height="148" filterUnits="userSpaceOnUse" color-interpolation-filters="sRGB">
                <feFlood flood-opacity="0" result="BackgroundImageFix"/>
                <feColorMatrix in="SourceAlpha" type="matrix" values="0 0 0 0 0 0 0 0 0 0 0 0 0 0 0 0 0 0 127 0"/>
                <feOffset dy="4"/>
                <feGaussianBlur stdDeviation="2"/>
                <feColorMatrix type="matrix" values="0 0 0 0 0 0 0 0 0 0 0 0 0 0 0 0 0 0 0.25 0"/>
                <feBlend mode="normal" in2="BackgroundImageFix" result="effect1_dropShadow"/>
                <feBlend mode="normal" in="SourceGraphic" in2="effect1_dropShadow" result="shape"/>
                </filter>
                <filter id="filter1_d" x="147.185" y="-0.00317383" width="104.37" height="147.999" filterUnits="userSpaceOnUse" color-interpolation-filters="sRGB">
                <feFlood flood-opacity="0" result="BackgroundImageFix"/>
                <feColorMatrix in="SourceAlpha" type="matrix" values="0 0 0 0 0 0 0 0 0 0 0 0 0 0 0 0 0 0 127 0"/>
                <feOffset dy="4"/>
                <feGaussianBlur stdDeviation="2"/>
                <feColorMatrix type="matrix" values="0 0 0 0 0 0 0 0 0 0 0 0 0 0 0 0 0 0 0.25 0"/>
                <feBlend mode="normal" in2="BackgroundImageFix" result="effect1_dropShadow"/>
                <feBlend mode="normal" in="SourceGraphic" in2="effect1_dropShadow" result="shape"/>
                </filter>
                <clipPath id="clip0">
                <rect x="4" width="526" height="140" fill="white"/>
                </clipPath>
                <style>
                #wheel{
                animation: rotate_whell 4s linear infinite;
      transform-origin: center;
      transform-box: fill-box;
  }

  @keyframes rotate_whell{
      from { transform: rotateZ(0deg);}
      to { transform: rotateZ(360deg);}
  }
                </style>
                </defs>
</svg>